<svg xmlns="http://www.w3.org/2000/svg" viewBox="0 0 931 795"><defs><style>.efba00bd-b822-414a-b806-4fb67dc96d18{fill:#ff422e;fill-rule:evenodd;}</style></defs><path class="efba00bd-b822-414a-b806-4fb67dc96d18" d="M630.39,105.09C601.28,42.94,539.07,0,465.94,0A182.49,182.49,0,0,0,300.67,105.09h-.07L1,778.22a11.93,11.93,0,0,0,13.23,16.55l242-48.27c6.35-77.27,69-191.59,209.28-191.59,142,0,205,111.76,209.28,191.59l241.91,48.14A11.92,11.92,0,0,0,930,778.11l-299.51-673ZM575,358.5A109.5,109.5,0,1,1,465.5,249,109.47,109.47,0,0,1,575,358.5Z"/></svg>
